HIERARCHY
ROOT root
{
	OFFSET 0.000000 0.000000 0.000000
	CHANNELS 6 Xposition Yposition Zposition Zrotation Yrotation Xrotation
	JOINT lhip
	{
		OFFSET 0.058581 -0.082280 -0.017664
		CHANNELS 3 Zrotation Yrotation Xrotation
		JOINT lknee
		{
			OFFSET 0.043451 -0.386469 0.008037
			CHANNELS 3 Zrotation Yrotation Xrotation
			JOINT lankle
			{
				OFFSET -0.014790 -0.426874 -0.037428
				CHANNELS 3 Zrotation Yrotation Xrotation
				JOINT ltoe
				{
					OFFSET 0.041054 -0.060286 0.122042
					CHANNELS 3 Zrotation Yrotation Xrotation
					End Site
					{
						OFFSET 0.000000 0.000000 0.000000
					}
				}
			}
		}
	}
	JOINT rhip
	{
		OFFSET -0.060310 -0.090513 -0.013543
		CHANNELS 3 Zrotation Yrotation Xrotation
		JOINT rknee
		{
			OFFSET -0.043257 -0.383688 -0.004843
			CHANNELS 3 Zrotation Yrotation Xrotation
			JOINT rankle
			{
				OFFSET 0.019056 -0.420046 -0.034562
				CHANNELS 3 Zrotation Yrotation Xrotation
				JOINT rtoe
				{
					OFFSET -0.034840 -0.062106 0.130323
					CHANNELS 3 Zrotation Yrotation Xrotation
					End Site
					{
						OFFSET 0.000000 0.000000 0.000000
					}
				}
			}
		}
	}
	JOINT lowerback
	{
		OFFSET 0.004439 0.124404 -0.038385
		CHANNELS 3 Zrotation Yrotation Xrotation
		JOINT upperback
		{
			OFFSET 0.004488 0.137956 0.026820
			CHANNELS 3 Zrotation Yrotation Xrotation
			JOINT chest
			{
				OFFSET -0.002265 0.056032 0.002855
				CHANNELS 3 Zrotation Yrotation Xrotation
				JOINT lowerneck
				{
					OFFSET -0.013390 0.211636 -0.033468
					CHANNELS 3 Zrotation Yrotation Xrotation
					JOINT upperneck
					{
						OFFSET 0.010113 0.088937 0.050410
						CHANNELS 3 Zrotation Yrotation Xrotation
						End Site
						{
							OFFSET 0.000000 0.000000 0.000000
						}
					}
				}
				JOINT lclavicle
				{
					OFFSET 0.071702 0.114000 -0.018898
					CHANNELS 3 Zrotation Yrotation Xrotation
					JOINT lshoulder
					{
						OFFSET 0.122921 0.045205 -0.019046
						CHANNELS 3 Zrotation Yrotation Xrotation
						JOINT lelbow
						{
							OFFSET 0.255332 -0.015649 -0.022946
							CHANNELS 3 Zrotation Yrotation Xrotation
							JOINT lwrist
							{
								OFFSET 0.265709 0.012698 -0.007375
								CHANNELS 3 Zrotation Yrotation Xrotation
								End Site
								{
									OFFSET 0.000000 0.000000 0.000000
								}
							}
						}
					}
				}
				JOINT rclavicle
				{
					OFFSET -0.082954 0.112472 -0.023707
					CHANNELS 3 Zrotation Yrotation Xrotation
					JOINT rshoulder
					{
						OFFSET -0.113228 0.046853 -0.008472
						CHANNELS 3 Zrotation Yrotation Xrotation
						JOINT relbow
						{
							OFFSET -0.260127 -0.014369 -0.031269
							CHANNELS 3 Zrotation Yrotation Xrotation
							JOINT rwrist
							{
								OFFSET -0.269108 0.006794 -0.006027
								CHANNELS 3 Zrotation Yrotation Xrotation
								End Site
								{
									OFFSET 0.000000 0.000000 0.000000
								}
							}
						}
					}
				}
			}
		}
	}
}
MOTION
Frames: 16
Frame Time: 0.033333
2.336070 0.708775 1.005245 -73.550162 -0.363629 84.270242 -2.191401 -4.287634 2.098816 -1.775868 -16.116926 4.361196 1.083105 6.168300 -7.831028 0.000000 -0.000000 0.000000 0.891250 -8.216459 3.890903 -3.161087 -6.369853 6.375944 -0.270946 -13.876955 -11.014323 0.000000 -0.000000 0.000000 0.823944 5.335814 8.465802 -1.436521 -1.341391 4.493567 0.018403 1.084999 -4.344292 -3.290996 27.435327 -9.144880 -0.498931 25.792846 0.517452 -31.249494 -9.189486 1.497782 -48.456725 -4.720811 13.831388 -2.849365 -20.499716 14.429823 -3.907759 -7.958459 3.317325 27.291073 10.070218 9.191878 54.462376 4.306547 17.310096 -1.567615 26.224296 9.157329 -1.056146 6.282287 5.132948 
2.337166 0.709990 1.003783 -74.016877 -0.873981 84.945381 -2.678988 -4.548170 1.301112 -1.707860 -15.826080 4.265049 1.255393 6.504411 -7.406890 0.000000 -0.000000 0.000000 0.529639 -7.316000 2.756060 -3.170502 -6.545785 6.881769 -0.307770 -14.113295 -11.168532 0.000000 -0.000000 0.000000 0.174128 5.350500 8.041816 -1.705842 -0.797252 3.968076 0.084235 0.942564 -4.207265 -2.868497 27.448245 -8.672821 -0.382145 25.737331 0.305615 -30.445547 -8.938349 1.174716 -49.159313 -4.638493 14.190093 -2.538305 -20.385235 14.299799 -5.460571 -8.073610 3.432815 27.044726 10.123813 9.139984 55.136356 4.368518 17.653221 -1.703100 26.274639 9.086946 1.578871 5.823720 3.930105 
2.337704 0.711323 1.002040 -74.381695 -1.133060 85.312262 -2.824529 -4.484838 0.869966 -1.774963 -15.674963 4.187192 1.323376 6.764430 -7.284075 0.000000 -0.000000 0.000000 0.403503 -6.901893 2.156493 -3.305462 -6.440335 7.011429 -0.151819 -14.261286 -10.932074 0.000000 -0.000000 0.000000 -0.133759 5.339263 8.278825 -1.919468 -0.275587 2.734470 0.260346 0.746130 -3.748970 -2.670914 26.854944 -8.345684 -0.112155 26.446162 0.613663 -30.123963 -8.657615 1.252878 -49.735965 -4.502520 14.805751 -1.933819 -20.634948 14.470196 -6.627347 -8.372245 2.453881 26.497130 9.971980 8.969804 55.945489 4.730597 17.710044 -1.874316 26.670000 7.368136 5.669177 4.815685 -0.710873 
2.337929 0.711662 1.001694 -74.311356 -1.259305 85.495454 -2.936789 -4.649249 0.578529 -1.853379 -15.642900 4.359746 1.287115 6.788253 -7.269101 0.000000 -0.000000 0.000000 0.253592 -6.785112 1.948964 -3.318223 -6.655506 6.996783 -0.151600 -14.235626 -10.832126 0.000000 -0.000000 0.000000 -0.364282 5.333316 7.916048 -1.832900 -0.397803 3.025428 0.194595 0.640547 -4.025323 -2.403707 26.677248 -7.797262 0.125644 26.857687 0.370018 -30.053903 -8.677698 1.267652 -49.963525 -4.392752 14.612324 -1.925351 -20.282034 13.888719 -5.404854 -9.388194 3.545847 26.875473 10.242142 9.324258 55.850770 4.436362 17.676987 -2.045734 26.320769 8.314125 2.201850 7.220899 3.130515 
2.337964 0.711889 1.001619 -74.325941 -1.213125 85.515253 -2.884500 -4.665732 0.586852 -1.807505 -15.656731 4.287580 1.319632 6.778956 -7.339916 0.000000 -0.000000 0.000000 0.300049 -6.810563 1.909645 -3.292583 -6.665650 7.000669 -0.032571 -14.220379 -10.926587 0.000000 -0.000000 0.000000 -0.359185 5.359813 7.893787 -1.795901 -0.408969 3.083757 0.206896 0.597503 -4.029120 -2.350469 26.725357 -7.837134 0.097181 26.926212 0.385153 -30.087192 -8.686280 1.244616 -50.021676 -4.389675 14.530271 -1.926561 -20.520294 13.658692 -5.272281 -8.903448 3.508057 26.885422 10.230940 9.323922 55.836610 4.524235 17.663032 -2.101244 26.300743 8.314336 2.379676 7.087128 3.370255 
2.338257 0.712035 1.001546 -74.371095 -1.292012 85.442037 -2.951006 -4.664983 0.585312 -1.810939 -15.485904 4.418180 1.281073 6.720199 -7.377160 0.000000 -0.000000 0.000000 0.209217 -6.783725 1.929566 -3.315740 -6.707573 7.096365 -0.170565 -14.094762 -10.926949 0.000000 -0.000000 0.000000 -0.309685 5.091053 6.882861 -1.885560 -1.111219 5.145059 -0.166965 1.237070 -4.393824 -2.442575 27.257974 -8.138653 -0.117577 26.602450 -0.292873 -29.564236 -8.891613 1.076305 -50.012660 -4.602075 14.082263 -1.942942 -20.729502 12.630376 -6.043281 -8.878047 4.268199 27.175456 11.083104 9.549271 55.838637 4.936474 17.297277 -2.614963 26.128786 7.520502 3.120342 7.263890 4.230524 
2.338289 0.711869 1.001546 -74.369381 -1.293777 85.436289 -2.931466 -4.676311 0.557135 -1.932007 -15.494315 4.495715 1.206325 6.631748 -7.255201 0.000000 -0.000000 0.000000 0.172153 -6.758969 1.930676 -3.270844 -6.686106 7.106916 -0.226122 -13.989440 -10.839895 0.000000 -0.000000 0.000000 -0.354272 5.085690 6.916360 -1.851080 -1.129744 5.172099 -0.149461 1.231203 -4.436450 -2.464254 27.279136 -8.236409 0.002710 26.615458 -0.332512 -29.654583 -8.907388 1.106130 -50.016412 -4.555755 14.066862 -1.723097 -20.688626 12.546857 -6.234302 -9.149650 4.398394 27.322945 11.123367 9.458984 55.675641 4.802381 17.274234 -2.832623 26.056892 7.579491 3.645355 7.349244 4.627577 
2.338445 0.711868 1.001579 -74.361154 -1.251762 85.476074 -2.914391 -4.702751 0.538355 -1.816066 -15.487369 4.415485 1.263847 6.623417 -7.357248 0.000000 -0.000000 0.000000 0.219046 -6.772095 1.862538 -3.305844 -6.768716 7.127346 -0.120767 -13.970709 -10.741606 0.000000 -0.000000 0.000000 -0.391616 5.086226 6.817936 -1.757661 -1.180610 5.281930 -0.120013 1.261732 -4.436060 -2.515233 27.319691 -8.208872 -0.065316 26.569909 -0.496774 -29.572741 -8.923360 1.025814 -50.159993 -4.508201 14.046920 -1.645434 -20.785242 12.400181 -6.739237 -8.932651 4.581562 27.250510 11.167203 9.382539 55.698984 4.762114 17.269472 -2.964008 26.372069 7.798819 4.472249 7.273680 4.992421 
2.338364 0.711761 1.001556 -74.426168 -1.255389 85.456333 -2.964402 -4.691123 0.680353 -1.689096 -15.505637 4.220179 1.291473 6.712883 -7.226830 0.000000 -0.000000 0.000000 0.235261 -6.733445 1.891112 -3.339679 -6.697946 7.106578 -0.151346 -14.010548 -10.765726 0.000000 -0.000000 0.000000 -0.380125 5.115839 6.855098 -1.768755 -1.148632 5.279984 -0.126000 1.257761 -4.455918 -2.532394 27.247723 -8.202045 -0.117039 26.532990 -0.762980 -29.412684 -8.763296 0.838714 -50.295276 -4.481320 14.120180 -1.732476 -20.857948 12.448805 -6.981064 -8.887358 4.667292 27.128593 11.059438 9.185860 55.819861 4.685826 17.328763 -2.938757 26.381362 7.915811 4.818376 7.219017 5.088446 
2.338424 0.711584 1.001661 -74.389685 -1.228234 85.446627 -2.900102 -4.642362 0.655332 -1.785314 -15.509545 4.293782 1.163087 6.640200 -7.271209 0.000000 -0.000000 0.000000 0.207186 -6.764897 1.918745 -3.287647 -6.720211 7.122315 -0.047500 -13.996373 -10.890358 0.000000 -0.000000 0.000000 -0.351757 5.135314 6.885164 -1.783257 -1.075390 5.175584 -0.085052 1.161834 -4.394626 -2.550847 27.252963 -8.121087 -0.187997 26.551194 -0.928476 -29.459489 -8.835194 0.975212 -50.326690 -4.478764 14.129866 -1.597924 -20.900567 12.569865 -6.868450 -8.938555 4.434614 26.984095 11.026742 9.187873 55.927123 4.594827 17.341243 -2.891474 26.467287 7.801559 4.604988 7.121009 4.338159 
2.338402 0.711461 1.001627 -74.420779 -1.253331 85.453141 -2.920246 -4.654757 0.628290 -1.820029 -15.519713 4.344867 1.254851 6.615437 -7.329701 0.000000 -0.000000 0.000000 0.185413 -6.754380 1.891635 -3.322969 -6.754184 7.161212 -0.109893 -14.047848 -10.768593 0.000000 -0.000000 0.000000 -0.354074 5.099212 6.840990 -1.800086 -1.088531 5.239622 -0.142231 1.244485 -4.413940 -2.562448 27.227557 -8.278179 -0.249898 26.486710 -0.937853 -29.428363 -8.784787 0.850754 -50.326468 -4.523680 14.121708 -1.574103 -20.692778 12.492264 -7.133565 -9.002485 4.588576 27.027895 11.042248 9.196983 55.937559 4.646576 17.336297 -2.918217 26.366902 7.809444 4.722453 7.187866 4.593963 
2.338322 0.711326 1.001745 -74.418728 -1.235417 85.476312 -2.902745 -4.637685 0.646790 -1.828899 -15.548326 4.332354 1.252871 6.615479 -7.340812 0.000000 -0.000000 0.000000 0.181805 -6.793495 1.912391 -3.271099 -6.717162 7.091809 -0.168496 -13.950285 -10.666005 0.000000 -0.000000 0.000000 -0.377016 5.227250 7.079106 -1.739019 -0.889009 4.716457 -0.045209 0.998544 -4.286438 -2.639352 27.110752 -8.240794 -0.349385 26.570797 -1.072939 -29.615001 -8.764783 0.892715 -50.288111 -4.352751 14.179611 -1.616431 -20.928973 12.667440 -6.878335 -8.887831 4.571964 26.995536 10.713375 9.055172 55.843219 4.551028 17.330776 -2.862109 26.547976 8.218045 4.783304 7.200929 5.085350 
2.338202 0.711178 1.001856 -74.399746 -1.223545 85.457215 -2.856424 -4.603459 0.638668 -1.917718 -15.481510 4.423064 1.282137 6.565662 -7.356813 0.000000 -0.000000 0.000000 0.178777 -6.778460 1.965385 -3.244201 -6.734240 7.071814 -0.099021 -13.946741 -10.762715 0.000000 -0.000000 0.000000 -0.350614 5.211581 7.142773 -1.786028 -0.840413 4.637100 -0.055614 1.009663 -4.330572 -2.683348 27.141066 -8.192001 -0.439796 26.491860 -1.422744 -29.637778 -8.846346 0.954930 -50.260240 -4.331031 14.036214 -1.580074 -21.045020 12.454648 -7.258310 -8.632432 4.304799 26.968364 10.819402 9.224348 55.974893 4.438095 17.299885 -2.986077 26.628032 7.993877 4.891981 6.978440 4.615382 
2.337970 0.711133 1.001617 -74.394997 -1.209310 85.437470 -2.843442 -4.541572 0.660730 -1.942542 -15.562502 4.411672 1.227749 6.571076 -7.309412 0.000000 -0.000000 0.000000 0.241265 -6.769912 1.999536 -3.332902 -6.678545 7.053425 -0.112955 -13.984759 -10.800352 0.000000 -0.000000 0.000000 -0.325767 5.210060 7.108346 -1.794339 -0.850896 4.722615 -0.086359 1.013678 -4.346393 -2.691659 27.110108 -8.001866 -0.608416 26.550510 -1.801061 -29.422461 -8.751014 0.787704 -50.468670 -4.299590 14.196929 -1.652778 -21.129915 12.511023 -7.134344 -8.348279 4.322109 26.750140 10.673133 9.034209 56.195969 4.511649 17.336045 -2.726882 26.523664 7.981742 4.869860 6.785075 4.367319 
2.337889 0.711044 1.001594 -74.421436 -1.200271 85.458269 -2.842698 -4.564353 0.651238 -1.935168 -15.526791 4.393204 1.186831 6.560237 -7.300036 0.000000 -0.000000 0.000000 0.232429 -6.799576 1.969661 -3.296375 -6.675703 7.048492 -0.159767 -13.942281 -10.735327 0.000000 -0.000000 0.000000 -0.334906 5.289918 7.034229 -1.764811 -0.876874 4.890258 -0.102772 1.011132 -4.467915 -2.755531 27.197455 -7.997865 -0.655899 26.522805 -2.100687 -29.474984 -8.787748 0.697636 -50.443923 -4.260990 14.103657 -1.612403 -21.123389 12.170609 -7.339855 -8.195161 4.469405 26.915156 10.687570 9.005385 56.023063 4.466369 17.260825 -2.840607 26.618487 8.011345 5.191366 6.819789 4.992642 
2.337857 0.710888 1.001318 -74.443968 -1.256334 85.441034 -2.939717 -4.586880 0.687355 -1.868588 -15.517776 4.364230 1.256996 6.529526 -7.396230 0.000000 -0.000000 0.000000 0.151445 -6.725165 1.988063 -3.309590 -6.744142 7.067998 -0.103194 -13.908727 -10.778071 0.000000 -0.000000 0.000000 -0.343034 5.171771 6.781731 -1.817396 -0.999119 5.436210 -0.195846 1.150197 -4.593496 -2.819859 27.328910 -8.211619 -0.684003 26.411304 -2.240041 -29.326850 -8.862539 0.795470 -50.477739 -4.260828 14.069308 -1.533288 -21.405992 12.117237 -7.328228 -8.582614 4.567391 26.994427 10.997681 9.141840 56.052896 4.528013 17.167879 -3.075909 26.723287 7.654305 5.103121 6.950828 4.748488 
